{"asset":{"version":"2.0","generator":"VECTARY"},"nodes":[{"translation":[0,-7.105427357601002e-18,0.045],"scale":[0.0004,0.00005405405405405406,0.00003816793893129771],"rotation":[-0.7071067811865475,0,0,0.7071067811865476],"name":"Box 3","mesh":0},{"translation":[0,-7.105427357601002e-18,0.045],"scale":[0.00005,0.00005405405405405406,0.00022900763358778628],"rotation":[-0.7071067811865475,0,0,0.7071067811865476],"name":"Box 4","mesh":1},{"translation":[0,7.105427357601002e-18,-0.045],"scale":[0.0004,0.00005405405405405406,0.00003816793893129771],"rotation":[-0.7071067811865475,0,0,0.7071067811865476],"name":"Box 2","mesh":2},{"translation":[0,7.105427357601002e-18,-0.045],"scale":[0.00005,0.00005405405405405406,0.00022900763358778628],"rotation":[-0.7071067811865475,0,0,0.7071067811865476],"name":"Box 1","mesh":3},{"translation":[0,0.03,5.3290705182007515e-18],"scale":[0.0001,0.001,0.0001],"rotation":[-0.7071067811865475,0,0,0.7071067811865476],"name":"Box","mesh":4}],"materials":[{"pbrMetallicRoughness":{"baseColorFactor":[0.8670237934377415,0.8670237934377415,0.8670237934377415,1],"metallicFactor":0,"roughnessFactor":0},"name":"Panama 2","emissiveFactor":[0,0,0],"extensions":{},"alphaMode":"OPAQUE","doubleSided":false},{"pbrMetallicRoughness":{"baseColorFactor":[0.8670237934377415,0.8670237934377415,0.8670237934377415,1],"metallicFactor":0,"roughnessFactor":0.2},"name":"Panama 3","emissiveFactor":[0,0,0],"extensions":{},"alphaMode":"OPAQUE","doubleSided":false},{"pbrMetallicRoughness":{"baseColorFactor":[0.8670237934377415,0.8670237934377415,0.8670237934377415,1],"metallicFactor":0,"roughnessFactor":0.2},"name":"Panama 1","emissiveFactor":[0,0,0],"extensions":{},"alphaMode":"OPAQUE","doubleSided":false},{"pbrMetallicRoughness":{"baseColorFactor":[0.8670237934377415,0.8670237934377415,0.8670237934377415,1],"metallicFactor":0,"roughnessFactor":0.2},"name":"Panama","emissiveFactor":[0,0,0],"extensions":{},"alphaMode":"OPAQUE","doubleSided":false},{"pbrMetallicRoughness":{"baseColorFactor":[0.8670237934377415,0.8670237934377415,0.8670237934377415,0.6],"metallicFactor":0,"roughnessFactor":0},"name":"Cupcake","emissiveFactor":[0,0,0],"extensions":{},"alphaMode":"BLEND","doubleSided":false}],"meshes":[{"primitives":[{"mode":4,"attributes":{"POSITION":1,"NORMAL":2,"TEXCOORD_0":3},"material":0,"indices":0}]},{"primitives":[{"mode":4,"attributes":{"POSITION":5,"NORMAL":6,"TEXCOORD_0":7},"material":1,"indices":4}]},{"primitives":[{"mode":4,"attributes":{"POSITION":9,"NORMAL":10,"TEXCOORD_0":11},"material":2,"indices":8}]},{"primitives":[{"mode":4,"attributes":{"POSITION":13,"NORMAL":14,"TEXCOORD_0":15},"material":3,"indices":12}]},{"primitives":[{"mode":4,"attributes":{"POSITION":17,"NORMAL":18,"TEXCOORD_0":19},"material":4,"indices":16}]}],"accessors":[{"bufferView":0,"byteOffset":0,"componentType":5125,"count":2916,"type":"SCALAR"},{"bufferView":1,"byteOffset":0,"componentType":5126,"count":596,"max":[50,18.5,131],"min":[-50,-18.5,0],"type":"VEC3"},{"bufferView":2,"byteOffset":0,"componentType":5126,"count":596,"type":"VEC3"},{"bufferView":3,"byteOffset":0,"componentType":5126,"count":596,"type":"VEC2"},{"bufferView":4,"byteOffset":0,"componentType":5125,"count":2916,"type":"SCALAR"},{"bufferView":5,"byteOffset":0,"componentType":5126,"count":596,"max":[50,18.5,131],"min":[-50,-18.5,0],"type":"VEC3"},{"bufferView":6,"byteOffset":0,"componentType":5126,"count":596,"type":"VEC3"},{"bufferView":7,"byteOffset":0,"componentType":5126,"count":596,"type":"VEC2"},{"bufferView":8,"byteOffset":0,"componentType":5125,"count":2916,"type":"SCALAR"},{"bufferView":9,"byteOffset":0,"componentType":5126,"count":596,"max":[50,18.5,131],"min":[-50,-18.5,0],"type":"VEC3"},{"bufferView":10,"byteOffset":0,"componentType":5126,"count":596,"type":"VEC3"},{"bufferView":11,"byteOffset":0,"componentType":5126,"count":596,"type":"VEC2"},{"bufferView":12,"byteOffset":0,"componentType":5125,"count":2916,"type":"SCALAR"},{"bufferView":13,"byteOffset":0,"componentType":5126,"count":596,"max":[50,18.5,131],"min":[-50,-18.5,0],"type":"VEC3"},{"bufferView":14,"byteOffset":0,"componentType":5126,"count":596,"type":"VEC3"},{"bufferView":15,"byteOffset":0,"componentType":5126,"count":596,"type":"VEC2"},{"bufferView":16,"byteOffset":0,"componentType":5125,"count":2916,"type":"SCALAR"},{"bufferView":17,"byteOffset":0,"componentType":5126,"count":596,"max":[50,50,100],"min":[-50,-50,0],"type":"VEC3"},{"bufferView":18,"byteOffset":0,"componentType":5126,"count":596,"type":"VEC3"},{"bufferView":19,"byteOffset":0,"componentType":5126,"count":596,"type":"VEC2"}],"bufferViews":[{"buffer":0,"byteOffset":0,"byteLength":11664,"target":34963},{"buffer":0,"byteOffset":11664,"byteLength":7152,"target":34962},{"buffer":0,"byteOffset":18816,"byteLength":7152,"target":34962},{"buffer":0,"byteOffset":25968,"byteLength":4768,"target":34962},{"buffer":0,"byteOffset":30736,"byteLength":11664,"target":34963},{"buffer":0,"byteOffset":42400,"byteLength":7152,"target":34962},{"buffer":0,"byteOffset":49552,"byteLength":7152,"target":34962},{"buffer":0,"byteOffset":56704,"byteLength":4768,"target":34962},{"buffer":0,"byteOffset":61472,"byteLength":11664,"target":34963},{"buffer":0,"byteOffset":73136,"byteLength":7152,"target":34962},{"buffer":0,"byteOffset":80288,"byteLength":7152,"target":34962},{"buffer":0,"byteOffset":87440,"byteLength":4768,"target":34962},{"buffer":0,"byteOffset":92208,"byteLength":11664,"target":34963},{"buffer":0,"byteOffset":103872,"byteLength":7152,"target":34962},{"buffer":0,"byteOffset":111024,"byteLength":7152,"target":34962},{"buffer":0,"byteOffset":118176,"byteLength":4768,"target":34962},{"buffer":0,"byteOffset":122944,"byteLength":11664,"target":34963},{"buffer":0,"byteOffset":134608,"byteLength":7152,"target":34962},{"buffer":0,"byteOffset":141760,"byteLength":7152,"target":34962},{"buffer":0,"byteOffset":148912,"byteLength":4768,"target":34962}],"scene":0,"scenes":[{"nodes":[0,1,2,3,4],"name":"CutMachine"}],"extensionsUsed":["KHR_texture_transform"],"buffers":[{"byteLength":153680,"uri":"CutMachine.bin"}]}