{"asset":{"version":"2.0","generator":"VECTARY"},"nodes":[{"translation":[0.07,0.07000000000000002,-0.049999999999999996],"scale":[0.0003,0.0003,0.0001],"rotation":[-0.5,0.5,-0.4999999999999999,0.5000000000000001],"name":"Cylinder 2","mesh":0},{"translation":[0.03,0.07000000000000002,-0.049999999999999996],"scale":[0.0001,0.0001,0.0004],"rotation":[-0.5,0.5,-0.4999999999999999,0.5000000000000001],"name":"Cylinder 3","mesh":1},{"translation":[0.07,0.07,0.05000000000000002],"scale":[0.0003,0.0003,0.0001],"rotation":[-0.5,0.5,-0.4999999999999999,0.5000000000000001],"name":"Cylinder 1","mesh":2},{"translation":[0.03,0.07,0.05000000000000002],"scale":[0.0001,0.0001,0.0004],"rotation":[-0.5,0.5,-0.4999999999999999,0.5000000000000001],"name":"Cylinder","mesh":3},{"translation":[0,0,0],"scale":[0.001,0.002,0.001],"rotation":[-0.7071067811865475,0,0,0.7071067811865476],"name":"Box","mesh":4}],"materials":[{"pbrMetallicRoughness":{"baseColorFactor":[0.8670237934377415,0.8670237934377415,0.8670237934377415,1],"metallicFactor":0,"roughnessFactor":0.2},"name":"Crazy Dream 1","emissiveFactor":[0,0,0],"extensions":{},"alphaMode":"OPAQUE","doubleSided":false},{"pbrMetallicRoughness":{"baseColorFactor":[0.8670237934377415,0.8670237934377415,0.8670237934377415,1],"metallicFactor":0,"roughnessFactor":0.2},"name":"Charming Nature 1","emissiveFactor":[0,0,0],"extensions":{},"alphaMode":"OPAQUE","doubleSided":false},{"pbrMetallicRoughness":{"baseColorFactor":[0.8670237934377415,0.8670237934377415,0.8670237934377415,1],"metallicFactor":0,"roughnessFactor":0.2},"name":"Crazy Dream","emissiveFactor":[0,0,0],"extensions":{},"alphaMode":"OPAQUE","doubleSided":false},{"pbrMetallicRoughness":{"baseColorFactor":[0.8670237934377415,0.8670237934377415,0.8670237934377415,1],"metallicFactor":0,"roughnessFactor":0.2},"name":"Charming Nature","emissiveFactor":[0,0,0],"extensions":{},"alphaMode":"OPAQUE","doubleSided":false},{"pbrMetallicRoughness":{"baseColorFactor":[0.8670237934377415,0.8670237934377415,0.8670237934377415,1],"metallicFactor":0,"roughnessFactor":0.2},"name":"Bilbao","emissiveFactor":[0,0,0],"extensions":{},"alphaMode":"OPAQUE","doubleSided":false}],"meshes":[{"primitives":[{"mode":4,"attributes":{"POSITION":1,"NORMAL":2,"TEXCOORD_0":3},"material":0,"indices":0}]},{"primitives":[{"mode":4,"attributes":{"POSITION":5,"NORMAL":6,"TEXCOORD_0":7},"material":1,"indices":4}]},{"primitives":[{"mode":4,"attributes":{"POSITION":9,"NORMAL":10,"TEXCOORD_0":11},"material":2,"indices":8}]},{"primitives":[{"mode":4,"attributes":{"POSITION":13,"NORMAL":14,"TEXCOORD_0":15},"material":3,"indices":12}]},{"primitives":[{"mode":4,"attributes":{"POSITION":17,"NORMAL":18,"TEXCOORD_0":19},"material":4,"indices":16}]}],"accessors":[{"bufferView":0,"byteOffset":0,"componentType":5125,"count":6912,"type":"SCALAR"},{"bufferView":1,"byteOffset":0,"componentType":5126,"count":1302,"max":[50,50,100],"min":[-50,-50,0],"type":"VEC3"},{"bufferView":2,"byteOffset":0,"componentType":5126,"count":1302,"type":"VEC3"},{"bufferView":3,"byteOffset":0,"componentType":5126,"count":1302,"type":"VEC2"},{"bufferView":4,"byteOffset":0,"componentType":5125,"count":6912,"type":"SCALAR"},{"bufferView":5,"byteOffset":0,"componentType":5126,"count":1302,"max":[50,50,100],"min":[-50,-50,0],"type":"VEC3"},{"bufferView":6,"byteOffset":0,"componentType":5126,"count":1302,"type":"VEC3"},{"bufferView":7,"byteOffset":0,"componentType":5126,"count":1302,"type":"VEC2"},{"bufferView":8,"byteOffset":0,"componentType":5125,"count":6912,"type":"SCALAR"},{"bufferView":9,"byteOffset":0,"componentType":5126,"count":1302,"max":[50,50,100],"min":[-50,-50,0],"type":"VEC3"},{"bufferView":10,"byteOffset":0,"componentType":5126,"count":1302,"type":"VEC3"},{"bufferView":11,"byteOffset":0,"componentType":5126,"count":1302,"type":"VEC2"},{"bufferView":12,"byteOffset":0,"componentType":5125,"count":6912,"type":"SCALAR"},{"bufferView":13,"byteOffset":0,"componentType":5126,"count":1302,"max":[50,50,100],"min":[-50,-50,0],"type":"VEC3"},{"bufferView":14,"byteOffset":0,"componentType":5126,"count":1302,"type":"VEC3"},{"bufferView":15,"byteOffset":0,"componentType":5126,"count":1302,"type":"VEC2"},{"bufferView":16,"byteOffset":0,"componentType":5125,"count":2916,"type":"SCALAR"},{"bufferView":17,"byteOffset":0,"componentType":5126,"count":596,"max":[50,50,100],"min":[-50,-50,0],"type":"VEC3"},{"bufferView":18,"byteOffset":0,"componentType":5126,"count":596,"type":"VEC3"},{"bufferView":19,"byteOffset":0,"componentType":5126,"count":596,"type":"VEC2"}],"bufferViews":[{"buffer":0,"byteOffset":0,"byteLength":27648,"target":34963},{"buffer":0,"byteOffset":27648,"byteLength":15624,"target":34962},{"buffer":0,"byteOffset":43272,"byteLength":15624,"target":34962},{"buffer":0,"byteOffset":58896,"byteLength":10416,"target":34962},{"buffer":0,"byteOffset":69312,"byteLength":27648,"target":34963},{"buffer":0,"byteOffset":96960,"byteLength":15624,"target":34962},{"buffer":0,"byteOffset":112584,"byteLength":15624,"target":34962},{"buffer":0,"byteOffset":128208,"byteLength":10416,"target":34962},{"buffer":0,"byteOffset":138624,"byteLength":27648,"target":34963},{"buffer":0,"byteOffset":166272,"byteLength":15624,"target":34962},{"buffer":0,"byteOffset":181896,"byteLength":15624,"target":34962},{"buffer":0,"byteOffset":197520,"byteLength":10416,"target":34962},{"buffer":0,"byteOffset":207936,"byteLength":27648,"target":34963},{"buffer":0,"byteOffset":235584,"byteLength":15624,"target":34962},{"buffer":0,"byteOffset":251208,"byteLength":15624,"target":34962},{"buffer":0,"byteOffset":266832,"byteLength":10416,"target":34962},{"buffer":0,"byteOffset":277248,"byteLength":11664,"target":34963},{"buffer":0,"byteOffset":288912,"byteLength":7152,"target":34962},{"buffer":0,"byteOffset":296064,"byteLength":7152,"target":34962},{"buffer":0,"byteOffset":303216,"byteLength":4768,"target":34962}],"scene":0,"scenes":[{"nodes":[0,1,2,3,4],"name":"Blocker"}],"extensionsUsed":["KHR_texture_transform"],"buffers":[{"byteLength":307984,"uri":"Blocker.bin"}]}