{"asset":{"version":"2.0","generator":"VECTARY"},"nodes":[{"translation":[-0.2,-0.03,-5.3290705182007515e-18],"scale":[0.001,0.001,0.001],"rotation":[-0.7071067811865475,0,0,0.7071067811865476],"name":"Tube 1","mesh":0},{"translation":[0.2,-0.03,-5.3290705182007515e-18],"scale":[0.001,0.001,0.001],"rotation":[-0.7071067811865475,0,0,0.7071067811865476],"name":"Tube","mesh":1},{"translation":[0,0,0],"scale":[0.0015,0.001,0.001],"rotation":[-0.7071067811865475,0,0,0.7071067811865476],"name":"Box","mesh":2}],"materials":[{"pbrMetallicRoughness":{"baseColorFactor":[0.8670237934377415,0.8670237934377415,0.8670237934377415,1],"metallicFactor":0,"roughnessFactor":0.2},"name":"Lonely Road 1","emissiveFactor":[0,0,0],"extensions":{},"alphaMode":"OPAQUE","doubleSided":false},{"pbrMetallicRoughness":{"baseColorFactor":[0.8670237934377415,0.8670237934377415,0.8670237934377415,1],"metallicFactor":0,"roughnessFactor":0.2},"name":"Lonely Road","emissiveFactor":[0,0,0],"extensions":{},"alphaMode":"OPAQUE","doubleSided":false},{"pbrMetallicRoughness":{"baseColorFactor":[1,1,1,0.5],"metallicFactor":0,"roughnessFactor":0},"name":"Keira","emissiveFactor":[0,0,0],"extensions":{},"alphaMode":"BLEND","doubleSided":true}],"meshes":[{"primitives":[{"mode":4,"attributes":{"POSITION":1,"NORMAL":2,"TEXCOORD_0":3},"material":0,"indices":0}]},{"primitives":[{"mode":4,"attributes":{"POSITION":5,"NORMAL":6,"TEXCOORD_0":7},"material":1,"indices":4}]},{"primitives":[{"mode":4,"attributes":{"POSITION":9,"NORMAL":10,"TEXCOORD_0":11},"material":2,"indices":8}]}],"accessors":[{"bufferView":0,"byteOffset":0,"componentType":5125,"count":13056,"type":"SCALAR"},{"bufferView":1,"byteOffset":0,"componentType":5126,"count":2470,"max":[12.5,12.5,40],"min":[-12.5,-12.5,0],"type":"VEC3"},{"bufferView":2,"byteOffset":0,"componentType":5126,"count":2470,"type":"VEC3"},{"bufferView":3,"byteOffset":0,"componentType":5126,"count":2470,"type":"VEC2"},{"bufferView":4,"byteOffset":0,"componentType":5125,"count":13056,"type":"SCALAR"},{"bufferView":5,"byteOffset":0,"componentType":5126,"count":2470,"max":[12.5,12.5,40],"min":[-12.5,-12.5,0],"type":"VEC3"},{"bufferView":6,"byteOffset":0,"componentType":5126,"count":2470,"type":"VEC3"},{"bufferView":7,"byteOffset":0,"componentType":5126,"count":2470,"type":"VEC2"},{"bufferView":8,"byteOffset":0,"componentType":5125,"count":324,"type":"SCALAR"},{"bufferView":9,"byteOffset":0,"componentType":5126,"count":92,"max":[200,50,100],"min":[-200,-50,0],"type":"VEC3"},{"bufferView":10,"byteOffset":0,"componentType":5126,"count":92,"type":"VEC3"},{"bufferView":11,"byteOffset":0,"componentType":5126,"count":92,"type":"VEC2"}],"bufferViews":[{"buffer":0,"byteOffset":0,"byteLength":52224,"target":34963},{"buffer":0,"byteOffset":52224,"byteLength":29640,"target":34962},{"buffer":0,"byteOffset":81864,"byteLength":29640,"target":34962},{"buffer":0,"byteOffset":111504,"byteLength":19760,"target":34962},{"buffer":0,"byteOffset":131264,"byteLength":52224,"target":34963},{"buffer":0,"byteOffset":183488,"byteLength":29640,"target":34962},{"buffer":0,"byteOffset":213128,"byteLength":29640,"target":34962},{"buffer":0,"byteOffset":242768,"byteLength":19760,"target":34962},{"buffer":0,"byteOffset":262528,"byteLength":1296,"target":34963},{"buffer":0,"byteOffset":263824,"byteLength":1104,"target":34962},{"buffer":0,"byteOffset":264928,"byteLength":1104,"target":34962},{"buffer":0,"byteOffset":266032,"byteLength":736,"target":34962}],"scene":0,"scenes":[{"nodes":[0,1,2],"name":"Tundish"}],"extensionsUsed":["KHR_texture_transform"],"buffers":[{"byteLength":266768,"uri":"Tundish.bin"}]}