{"asset":{"version":"2.0","generator":"VECTARY"},"nodes":[{"translation":[-0.00043863721169987,0.0779541552375949,0.02800000000000001],"scale":[0.0010236220472440946,0.0008333333333333334,0.0008823529411764707],"rotation":[-0.7071067811865475,0,0,0.7071067811865476],"name":"Box 1","mesh":0},{"translation":[-0.00043863721169987,0.0779541552375949,-0.027999999999999976],"scale":[0.0010236220472440946,0.0008333333333333334,0.0008823529411764707],"rotation":[-0.7071067811865475,0,0,0.7071067811865476],"name":"Box","mesh":1},{"translation":[0,0,0],"scale":[0.0009652509652509653,0.0010149193139145439,0.001],"rotation":[-0.7071067811865475,0,0,0.7071067811865476],"name":"Cylinder","mesh":2}],"materials":[{"pbrMetallicRoughness":{"baseColorFactor":[0.8670237934377415,0.8670237934377415,0.8670237934377415,1],"metallicFactor":0,"roughnessFactor":0.2},"name":"Disco LIghts 1","emissiveFactor":[0,0,0],"extensions":{},"alphaMode":"OPAQUE","doubleSided":false},{"pbrMetallicRoughness":{"baseColorFactor":[0.8670237934377415,0.8670237934377415,0.8670237934377415,1],"metallicFactor":0,"roughnessFactor":0.2},"name":"Disco LIghts","emissiveFactor":[0,0,0],"extensions":{},"alphaMode":"OPAQUE","doubleSided":false},{"pbrMetallicRoughness":{"baseColorFactor":[0.8670237934377415,0.8670237934377415,0.8670237934377415,1],"metallicFactor":0,"roughnessFactor":0.2},"name":"Valley","emissiveFactor":[0,0,0],"extensions":{},"alphaMode":"OPAQUE","doubleSided":false}],"meshes":[{"primitives":[{"mode":4,"attributes":{"POSITION":1,"NORMAL":2,"TEXCOORD_0":3},"material":0,"indices":0}]},{"primitives":[{"mode":4,"attributes":{"POSITION":5,"NORMAL":6,"TEXCOORD_0":7},"material":1,"indices":4}]},{"primitives":[{"mode":4,"attributes":{"POSITION":9,"NORMAL":10,"TEXCOORD_0":11},"material":2,"indices":8}]}],"accessors":[{"bufferView":0,"byteOffset":0,"componentType":5125,"count":2916,"type":"SCALAR"},{"bufferView":1,"byteOffset":0,"componentType":5126,"count":596,"max":[63.5,3,17],"min":[-63.5,-3,0],"type":"VEC3"},{"bufferView":2,"byteOffset":0,"componentType":5126,"count":596,"type":"VEC3"},{"bufferView":3,"byteOffset":0,"componentType":5126,"count":596,"type":"VEC2"},{"bufferView":4,"byteOffset":0,"componentType":5125,"count":2916,"type":"SCALAR"},{"bufferView":5,"byteOffset":0,"componentType":5126,"count":596,"max":[63.5,3,17],"min":[-63.5,-3,0],"type":"VEC3"},{"bufferView":6,"byteOffset":0,"componentType":5126,"count":596,"type":"VEC3"},{"bufferView":7,"byteOffset":0,"componentType":5126,"count":596,"type":"VEC2"},{"bufferView":8,"byteOffset":0,"componentType":5125,"count":360,"type":"SCALAR"},{"bufferView":9,"byteOffset":0,"componentType":5126,"count":90,"max":[25.899999618530273,24.63236427307129,100],"min":[-25.899999618530273,-24.63236427307129,0],"type":"VEC3"},{"bufferView":10,"byteOffset":0,"componentType":5126,"count":90,"type":"VEC3"},{"bufferView":11,"byteOffset":0,"componentType":5126,"count":90,"type":"VEC2"}],"bufferViews":[{"buffer":0,"byteOffset":0,"byteLength":11664,"target":34963},{"buffer":0,"byteOffset":11664,"byteLength":7152,"target":34962},{"buffer":0,"byteOffset":18816,"byteLength":7152,"target":34962},{"buffer":0,"byteOffset":25968,"byteLength":4768,"target":34962},{"buffer":0,"byteOffset":30736,"byteLength":11664,"target":34963},{"buffer":0,"byteOffset":42400,"byteLength":7152,"target":34962},{"buffer":0,"byteOffset":49552,"byteLength":7152,"target":34962},{"buffer":0,"byteOffset":56704,"byteLength":4768,"target":34962},{"buffer":0,"byteOffset":61472,"byteLength":1440,"target":34963},{"buffer":0,"byteOffset":62912,"byteLength":1080,"target":34962},{"buffer":0,"byteOffset":63992,"byteLength":1080,"target":34962},{"buffer":0,"byteOffset":65072,"byteLength":720,"target":34962}],"scene":0,"scenes":[{"nodes":[0,1,2],"name":"Turret"}],"extensionsUsed":["KHR_texture_transform"],"buffers":[{"byteLength":65792,"uri":"Turret.bin"}]}