{"asset":{"version":"2.0","generator":"VECTARY"},"nodes":[{"translation":[-0.025,4.263256414560601e-17,-0.24],"scale":[0.00002,0.0001,0.0015],"rotation":[-0.38268343236508956,0,0,0.9238795325112868],"name":"Box 9","mesh":0},{"translation":[0.025,4.263256414560601e-17,-0.24],"scale":[0.00002,0.0001,0.0015],"rotation":[-0.38268343236508956,0,0,0.9238795325112868],"name":"Box 10","mesh":1},{"translation":[0,4.263256414560601e-17,-0.25],"scale":[0.0005,0.0002,0.00005],"rotation":[-0.7071067811865475,0,0,0.7071067811865476],"name":"Box 11","mesh":2},{"translation":[0,0.010000000000000044,-0.23],"scale":[0.0005,0.0002,0.00005],"rotation":[-0.7071067811865475,0,0,0.7071067811865476],"name":"Box 12","mesh":3},{"translation":[0,0.030000000000000044,-0.21],"scale":[0.0005,0.0002,0.00005],"rotation":[-0.7071067811865475,0,0,0.7071067811865476],"name":"Box 13","mesh":4},{"translation":[0,0.050000000000000044,-0.19],"scale":[0.0005,0.0002,0.00005],"rotation":[-0.7071067811865475,0,0,0.7071067811865476],"name":"Box 14","mesh":5},{"translation":[0,0.07000000000000003,-0.17],"scale":[0.0005,0.0002,0.00005],"rotation":[-0.7071067811865475,0,0,0.7071067811865476],"name":"Box 15","mesh":6},{"translation":[0,0.09000000000000002,-0.15],"scale":[0.0005,0.0002,0.00005],"rotation":[-0.7071067811865475,0,0,0.7071067811865476],"name":"Box 16","mesh":7},{"translation":[-0.025,-4.263256414560601e-17,0.24],"scale":[0.00002,0.0001,0.0015],"rotation":[-0.9238795325112867,0,0,0.3826834323650897],"name":"Box 8","mesh":8},{"translation":[0.025,-4.263256414560601e-17,0.24],"scale":[0.00002,0.0001,0.0015],"rotation":[-0.9238795325112867,0,0,0.3826834323650897],"name":"Box 7","mesh":9},{"translation":[0,-4.263256414560601e-17,0.25],"scale":[0.0005,0.0002,0.00005],"rotation":[-0.7071067811865475,0,0,0.7071067811865476],"name":"Box 6","mesh":10},{"translation":[0,0.009999999999999957,0.23],"scale":[0.0005,0.0002,0.00005],"rotation":[-0.7071067811865475,0,0,0.7071067811865476],"name":"Box 5","mesh":11},{"translation":[0,0.029999999999999957,0.21],"scale":[0.0005,0.0002,0.00005],"rotation":[-0.7071067811865475,0,0,0.7071067811865476],"name":"Box 4","mesh":12},{"translation":[0,0.04999999999999996,0.19],"scale":[0.0005,0.0002,0.00005],"rotation":[-0.7071067811865475,0,0,0.7071067811865476],"name":"Box 3","mesh":13},{"translation":[0,0.07,0.17],"scale":[0.0005,0.0002,0.00005],"rotation":[-0.7071067811865475,0,0,0.7071067811865476],"name":"Box 2","mesh":14},{"translation":[0,0.09,0.15000000000000002],"scale":[0.0005,0.0002,0.00005],"rotation":[-0.7071067811865475,0,0,0.7071067811865476],"name":"Box 1","mesh":15},{"translation":[0,0.1,2.1316282072803006e-17],"scale":[0.0006,0.003,0.0005],"rotation":[-0.7071067811865475,0,0,0.7071067811865476],"name":"Box","mesh":16}],"materials":[{"pbrMetallicRoughness":{"baseColorFactor":[0.8670237934377415,0.8670237934377415,0.8670237934377415,1],"metallicFactor":0,"roughnessFactor":0.2},"name":"Ozark 8","emissiveFactor":[0,0,0],"extensions":{},"alphaMode":"OPAQUE","doubleSided":false},{"pbrMetallicRoughness":{"baseColorFactor":[0.8670237934377415,0.8670237934377415,0.8670237934377415,1],"metallicFactor":0,"roughnessFactor":0.2},"name":"Ozark 9","emissiveFactor":[0,0,0],"extensions":{},"alphaMode":"OPAQUE","doubleSided":false},{"pbrMetallicRoughness":{"baseColorFactor":[0.8670237934377415,0.8670237934377415,0.8670237934377415,1],"metallicFactor":0,"roughnessFactor":0.2},"name":"Ozark 10","emissiveFactor":[0,0,0],"extensions":{},"alphaMode":"OPAQUE","doubleSided":false},{"pbrMetallicRoughness":{"baseColorFactor":[0.8670237934377415,0.8670237934377415,0.8670237934377415,1],"metallicFactor":0,"roughnessFactor":0.2},"name":"Ozark 11","emissiveFactor":[0,0,0],"extensions":{},"alphaMode":"OPAQUE","doubleSided":false},{"pbrMetallicRoughness":{"baseColorFactor":[0.8670237934377415,0.8670237934377415,0.8670237934377415,1],"metallicFactor":0,"roughnessFactor":0.2},"name":"Ozark 12","emissiveFactor":[0,0,0],"extensions":{},"alphaMode":"OPAQUE","doubleSided":false},{"pbrMetallicRoughness":{"baseColorFactor":[0.8670237934377415,0.8670237934377415,0.8670237934377415,1],"metallicFactor":0,"roughnessFactor":0.2},"name":"Ozark 13","emissiveFactor":[0,0,0],"extensions":{},"alphaMode":"OPAQUE","doubleSided":false},{"pbrMetallicRoughness":{"baseColorFactor":[0.8670237934377415,0.8670237934377415,0.8670237934377415,1],"metallicFactor":0,"roughnessFactor":0.2},"name":"Ozark 14","emissiveFactor":[0,0,0],"extensions":{},"alphaMode":"OPAQUE","doubleSided":false},{"pbrMetallicRoughness":{"baseColorFactor":[0.8670237934377415,0.8670237934377415,0.8670237934377415,1],"metallicFactor":0,"roughnessFactor":0.2},"name":"Ozark 15","emissiveFactor":[0,0,0],"extensions":{},"alphaMode":"OPAQUE","doubleSided":false},{"pbrMetallicRoughness":{"baseColorFactor":[0.8670237934377415,0.8670237934377415,0.8670237934377415,1],"metallicFactor":0,"roughnessFactor":0.2},"name":"Ozark 7","emissiveFactor":[0,0,0],"extensions":{},"alphaMode":"OPAQUE","doubleSided":false},{"pbrMetallicRoughness":{"baseColorFactor":[0.8670237934377415,0.8670237934377415,0.8670237934377415,1],"metallicFactor":0,"roughnessFactor":0.2},"name":"Ozark 6","emissiveFactor":[0,0,0],"extensions":{},"alphaMode":"OPAQUE","doubleSided":false},{"pbrMetallicRoughness":{"baseColorFactor":[0.8670237934377415,0.8670237934377415,0.8670237934377415,1],"metallicFactor":0,"roughnessFactor":0.2},"name":"Ozark 5","emissiveFactor":[0,0,0],"extensions":{},"alphaMode":"OPAQUE","doubleSided":false},{"pbrMetallicRoughness":{"baseColorFactor":[0.8670237934377415,0.8670237934377415,0.8670237934377415,1],"metallicFactor":0,"roughnessFactor":0.2},"name":"Ozark 4","emissiveFactor":[0,0,0],"extensions":{},"alphaMode":"OPAQUE","doubleSided":false},{"pbrMetallicRoughness":{"baseColorFactor":[0.8670237934377415,0.8670237934377415,0.8670237934377415,1],"metallicFactor":0,"roughnessFactor":0.2},"name":"Ozark 3","emissiveFactor":[0,0,0],"extensions":{},"alphaMode":"OPAQUE","doubleSided":false},{"pbrMetallicRoughness":{"baseColorFactor":[0.8670237934377415,0.8670237934377415,0.8670237934377415,1],"metallicFactor":0,"roughnessFactor":0.2},"name":"Ozark 2","emissiveFactor":[0,0,0],"extensions":{},"alphaMode":"OPAQUE","doubleSided":false},{"pbrMetallicRoughness":{"baseColorFactor":[0.8670237934377415,0.8670237934377415,0.8670237934377415,1],"metallicFactor":0,"roughnessFactor":0.2},"name":"Ozark 1","emissiveFactor":[0,0,0],"extensions":{},"alphaMode":"OPAQUE","doubleSided":false},{"pbrMetallicRoughness":{"baseColorFactor":[0.8670237934377415,0.8670237934377415,0.8670237934377415,1],"metallicFactor":0,"roughnessFactor":0.2},"name":"Ozark","emissiveFactor":[0,0,0],"extensions":{},"alphaMode":"OPAQUE","doubleSided":false},{"pbrMetallicRoughness":{"baseColorFactor":[0.8670237934377415,0.8670237934377415,0.8670237934377415,1],"metallicFactor":0,"roughnessFactor":0.2},"name":"Kenya","emissiveFactor":[0,0,0],"extensions":{},"alphaMode":"OPAQUE","doubleSided":false}],"meshes":[{"primitives":[{"mode":4,"attributes":{"POSITION":1,"NORMAL":2,"TEXCOORD_0":3},"material":0,"indices":0}]},{"primitives":[{"mode":4,"attributes":{"POSITION":5,"NORMAL":6,"TEXCOORD_0":7},"material":1,"indices":4}]},{"primitives":[{"mode":4,"attributes":{"POSITION":9,"NORMAL":10,"TEXCOORD_0":11},"material":2,"indices":8}]},{"primitives":[{"mode":4,"attributes":{"POSITION":13,"NORMAL":14,"TEXCOORD_0":15},"material":3,"indices":12}]},{"primitives":[{"mode":4,"attributes":{"POSITION":17,"NORMAL":18,"TEXCOORD_0":19},"material":4,"indices":16}]},{"primitives":[{"mode":4,"attributes":{"POSITION":21,"NORMAL":22,"TEXCOORD_0":23},"material":5,"indices":20}]},{"primitives":[{"mode":4,"attributes":{"POSITION":25,"NORMAL":26,"TEXCOORD_0":27},"material":6,"indices":24}]},{"primitives":[{"mode":4,"attributes":{"POSITION":29,"NORMAL":30,"TEXCOORD_0":31},"material":7,"indices":28}]},{"primitives":[{"mode":4,"attributes":{"POSITION":33,"NORMAL":34,"TEXCOORD_0":35},"material":8,"indices":32}]},{"primitives":[{"mode":4,"attributes":{"POSITION":37,"NORMAL":38,"TEXCOORD_0":39},"material":9,"indices":36}]},{"primitives":[{"mode":4,"attributes":{"POSITION":41,"NORMAL":42,"TEXCOORD_0":43},"material":10,"indices":40}]},{"primitives":[{"mode":4,"attributes":{"POSITION":45,"NORMAL":46,"TEXCOORD_0":47},"material":11,"indices":44}]},{"primitives":[{"mode":4,"attributes":{"POSITION":49,"NORMAL":50,"TEXCOORD_0":51},"material":12,"indices":48}]},{"primitives":[{"mode":4,"attributes":{"POSITION":53,"NORMAL":54,"TEXCOORD_0":55},"material":13,"indices":52}]},{"primitives":[{"mode":4,"attributes":{"POSITION":57,"NORMAL":58,"TEXCOORD_0":59},"material":14,"indices":56}]},{"primitives":[{"mode":4,"attributes":{"POSITION":61,"NORMAL":62,"TEXCOORD_0":63},"material":15,"indices":60}]},{"primitives":[{"mode":4,"attributes":{"POSITION":65,"NORMAL":66,"TEXCOORD_0":67},"material":16,"indices":64}]}],"accessors":[{"bufferView":0,"byteOffset":0,"componentType":5125,"count":2916,"type":"SCALAR"},{"bufferView":1,"byteOffset":0,"componentType":5126,"count":596,"max":[50,50,100],"min":[-50,-50,0],"type":"VEC3"},{"bufferView":2,"byteOffset":0,"componentType":5126,"count":596,"type":"VEC3"},{"bufferView":3,"byteOffset":0,"componentType":5126,"count":596,"type":"VEC2"},{"bufferView":4,"byteOffset":0,"componentType":5125,"count":2916,"type":"SCALAR"},{"bufferView":5,"byteOffset":0,"componentType":5126,"count":596,"max":[50,50,100],"min":[-50,-50,0],"type":"VEC3"},{"bufferView":6,"byteOffset":0,"componentType":5126,"count":596,"type":"VEC3"},{"bufferView":7,"byteOffset":0,"componentType":5126,"count":596,"type":"VEC2"},{"bufferView":8,"byteOffset":0,"componentType":5125,"count":2916,"type":"SCALAR"},{"bufferView":9,"byteOffset":0,"componentType":5126,"count":596,"max":[50,50,100],"min":[-50,-50,0],"type":"VEC3"},{"bufferView":10,"byteOffset":0,"componentType":5126,"count":596,"type":"VEC3"},{"bufferView":11,"byteOffset":0,"componentType":5126,"count":596,"type":"VEC2"},{"bufferView":12,"byteOffset":0,"componentType":5125,"count":2916,"type":"SCALAR"},{"bufferView":13,"byteOffset":0,"componentType":5126,"count":596,"max":[50,50,100],"min":[-50,-50,0],"type":"VEC3"},{"bufferView":14,"byteOffset":0,"componentType":5126,"count":596,"type":"VEC3"},{"bufferView":15,"byteOffset":0,"componentType":5126,"count":596,"type":"VEC2"},{"bufferView":16,"byteOffset":0,"componentType":5125,"count":2916,"type":"SCALAR"},{"bufferView":17,"byteOffset":0,"componentType":5126,"count":596,"max":[50,50,100],"min":[-50,-50,0],"type":"VEC3"},{"bufferView":18,"byteOffset":0,"componentType":5126,"count":596,"type":"VEC3"},{"bufferView":19,"byteOffset":0,"componentType":5126,"count":596,"type":"VEC2"},{"bufferView":20,"byteOffset":0,"componentType":5125,"count":2916,"type":"SCALAR"},{"bufferView":21,"byteOffset":0,"componentType":5126,"count":596,"max":[50,50,100],"min":[-50,-50,0],"type":"VEC3"},{"bufferView":22,"byteOffset":0,"componentType":5126,"count":596,"type":"VEC3"},{"bufferView":23,"byteOffset":0,"componentType":5126,"count":596,"type":"VEC2"},{"bufferView":24,"byteOffset":0,"componentType":5125,"count":2916,"type":"SCALAR"},{"bufferView":25,"byteOffset":0,"componentType":5126,"count":596,"max":[50,50,100],"min":[-50,-50,0],"type":"VEC3"},{"bufferView":26,"byteOffset":0,"componentType":5126,"count":596,"type":"VEC3"},{"bufferView":27,"byteOffset":0,"componentType":5126,"count":596,"type":"VEC2"},{"bufferView":28,"byteOffset":0,"componentType":5125,"count":2916,"type":"SCALAR"},{"bufferView":29,"byteOffset":0,"componentType":5126,"count":596,"max":[50,50,100],"min":[-50,-50,0],"type":"VEC3"},{"bufferView":30,"byteOffset":0,"componentType":5126,"count":596,"type":"VEC3"},{"bufferView":31,"byteOffset":0,"componentType":5126,"count":596,"type":"VEC2"},{"bufferView":32,"byteOffset":0,"componentType":5125,"count":2916,"type":"SCALAR"},{"bufferView":33,"byteOffset":0,"componentType":5126,"count":596,"max":[50,50,100],"min":[-50,-50,0],"type":"VEC3"},{"bufferView":34,"byteOffset":0,"componentType":5126,"count":596,"type":"VEC3"},{"bufferView":35,"byteOffset":0,"componentType":5126,"count":596,"type":"VEC2"},{"bufferView":36,"byteOffset":0,"componentType":5125,"count":2916,"type":"SCALAR"},{"bufferView":37,"byteOffset":0,"componentType":5126,"count":596,"max":[50,50,100],"min":[-50,-50,0],"type":"VEC3"},{"bufferView":38,"byteOffset":0,"componentType":5126,"count":596,"type":"VEC3"},{"bufferView":39,"byteOffset":0,"componentType":5126,"count":596,"type":"VEC2"},{"bufferView":40,"byteOffset":0,"componentType":5125,"count":2916,"type":"SCALAR"},{"bufferView":41,"byteOffset":0,"componentType":5126,"count":596,"max":[50,50,100],"min":[-50,-50,0],"type":"VEC3"},{"bufferView":42,"byteOffset":0,"componentType":5126,"count":596,"type":"VEC3"},{"bufferView":43,"byteOffset":0,"componentType":5126,"count":596,"type":"VEC2"},{"bufferView":44,"byteOffset":0,"componentType":5125,"count":2916,"type":"SCALAR"},{"bufferView":45,"byteOffset":0,"componentType":5126,"count":596,"max":[50,50,100],"min":[-50,-50,0],"type":"VEC3"},{"bufferView":46,"byteOffset":0,"componentType":5126,"count":596,"type":"VEC3"},{"bufferView":47,"byteOffset":0,"componentType":5126,"count":596,"type":"VEC2"},{"bufferView":48,"byteOffset":0,"componentType":5125,"count":2916,"type":"SCALAR"},{"bufferView":49,"byteOffset":0,"componentType":5126,"count":596,"max":[50,50,100],"min":[-50,-50,0],"type":"VEC3"},{"bufferView":50,"byteOffset":0,"componentType":5126,"count":596,"type":"VEC3"},{"bufferView":51,"byteOffset":0,"componentType":5126,"count":596,"type":"VEC2"},{"bufferView":52,"byteOffset":0,"componentType":5125,"count":2916,"type":"SCALAR"},{"bufferView":53,"byteOffset":0,"componentType":5126,"count":596,"max":[50,50,100],"min":[-50,-50,0],"type":"VEC3"},{"bufferView":54,"byteOffset":0,"componentType":5126,"count":596,"type":"VEC3"},{"bufferView":55,"byteOffset":0,"componentType":5126,"count":596,"type":"VEC2"},{"bufferView":56,"byteOffset":0,"componentType":5125,"count":2916,"type":"SCALAR"},{"bufferView":57,"byteOffset":0,"componentType":5126,"count":596,"max":[50,50,100],"min":[-50,-50,0],"type":"VEC3"},{"bufferView":58,"byteOffset":0,"componentType":5126,"count":596,"type":"VEC3"},{"bufferView":59,"byteOffset":0,"componentType":5126,"count":596,"type":"VEC2"},{"bufferView":60,"byteOffset":0,"componentType":5125,"count":2916,"type":"SCALAR"},{"bufferView":61,"byteOffset":0,"componentType":5126,"count":596,"max":[50,50,100],"min":[-50,-50,0],"type":"VEC3"},{"bufferView":62,"byteOffset":0,"componentType":5126,"count":596,"type":"VEC3"},{"bufferView":63,"byteOffset":0,"componentType":5126,"count":596,"type":"VEC2"},{"bufferView":64,"byteOffset":0,"componentType":5125,"count":2916,"type":"SCALAR"},{"bufferView":65,"byteOffset":0,"componentType":5126,"count":596,"max":[50,50,100],"min":[-50,-50,0],"type":"VEC3"},{"bufferView":66,"byteOffset":0,"componentType":5126,"count":596,"type":"VEC3"},{"bufferView":67,"byteOffset":0,"componentType":5126,"count":596,"type":"VEC2"}],"bufferViews":[{"buffer":0,"byteOffset":0,"byteLength":11664,"target":34963},{"buffer":0,"byteOffset":11664,"byteLength":7152,"target":34962},{"buffer":0,"byteOffset":18816,"byteLength":7152,"target":34962},{"buffer":0,"byteOffset":25968,"byteLength":4768,"target":34962},{"buffer":0,"byteOffset":30736,"byteLength":11664,"target":34963},{"buffer":0,"byteOffset":42400,"byteLength":7152,"target":34962},{"buffer":0,"byteOffset":49552,"byteLength":7152,"target":34962},{"buffer":0,"byteOffset":56704,"byteLength":4768,"target":34962},{"buffer":0,"byteOffset":61472,"byteLength":11664,"target":34963},{"buffer":0,"byteOffset":73136,"byteLength":7152,"target":34962},{"buffer":0,"byteOffset":80288,"byteLength":7152,"target":34962},{"buffer":0,"byteOffset":87440,"byteLength":4768,"target":34962},{"buffer":0,"byteOffset":92208,"byteLength":11664,"target":34963},{"buffer":0,"byteOffset":103872,"byteLength":7152,"target":34962},{"buffer":0,"byteOffset":111024,"byteLength":7152,"target":34962},{"buffer":0,"byteOffset":118176,"byteLength":4768,"target":34962},{"buffer":0,"byteOffset":122944,"byteLength":11664,"target":34963},{"buffer":0,"byteOffset":134608,"byteLength":7152,"target":34962},{"buffer":0,"byteOffset":141760,"byteLength":7152,"target":34962},{"buffer":0,"byteOffset":148912,"byteLength":4768,"target":34962},{"buffer":0,"byteOffset":153680,"byteLength":11664,"target":34963},{"buffer":0,"byteOffset":165344,"byteLength":7152,"target":34962},{"buffer":0,"byteOffset":172496,"byteLength":7152,"target":34962},{"buffer":0,"byteOffset":179648,"byteLength":4768,"target":34962},{"buffer":0,"byteOffset":184416,"byteLength":11664,"target":34963},{"buffer":0,"byteOffset":196080,"byteLength":7152,"target":34962},{"buffer":0,"byteOffset":203232,"byteLength":7152,"target":34962},{"buffer":0,"byteOffset":210384,"byteLength":4768,"target":34962},{"buffer":0,"byteOffset":215152,"byteLength":11664,"target":34963},{"buffer":0,"byteOffset":226816,"byteLength":7152,"target":34962},{"buffer":0,"byteOffset":233968,"byteLength":7152,"target":34962},{"buffer":0,"byteOffset":241120,"byteLength":4768,"target":34962},{"buffer":0,"byteOffset":245888,"byteLength":11664,"target":34963},{"buffer":0,"byteOffset":257552,"byteLength":7152,"target":34962},{"buffer":0,"byteOffset":264704,"byteLength":7152,"target":34962},{"buffer":0,"byteOffset":271856,"byteLength":4768,"target":34962},{"buffer":0,"byteOffset":276624,"byteLength":11664,"target":34963},{"buffer":0,"byteOffset":288288,"byteLength":7152,"target":34962},{"buffer":0,"byteOffset":295440,"byteLength":7152,"target":34962},{"buffer":0,"byteOffset":302592,"byteLength":4768,"target":34962},{"buffer":0,"byteOffset":307360,"byteLength":11664,"target":34963},{"buffer":0,"byteOffset":319024,"byteLength":7152,"target":34962},{"buffer":0,"byteOffset":326176,"byteLength":7152,"target":34962},{"buffer":0,"byteOffset":333328,"byteLength":4768,"target":34962},{"buffer":0,"byteOffset":338096,"byteLength":11664,"target":34963},{"buffer":0,"byteOffset":349760,"byteLength":7152,"target":34962},{"buffer":0,"byteOffset":356912,"byteLength":7152,"target":34962},{"buffer":0,"byteOffset":364064,"byteLength":4768,"target":34962},{"buffer":0,"byteOffset":368832,"byteLength":11664,"target":34963},{"buffer":0,"byteOffset":380496,"byteLength":7152,"target":34962},{"buffer":0,"byteOffset":387648,"byteLength":7152,"target":34962},{"buffer":0,"byteOffset":394800,"byteLength":4768,"target":34962},{"buffer":0,"byteOffset":399568,"byteLength":11664,"target":34963},{"buffer":0,"byteOffset":411232,"byteLength":7152,"target":34962},{"buffer":0,"byteOffset":418384,"byteLength":7152,"target":34962},{"buffer":0,"byteOffset":425536,"byteLength":4768,"target":34962},{"buffer":0,"byteOffset":430304,"byteLength":11664,"target":34963},{"buffer":0,"byteOffset":441968,"byteLength":7152,"target":34962},{"buffer":0,"byteOffset":449120,"byteLength":7152,"target":34962},{"buffer":0,"byteOffset":456272,"byteLength":4768,"target":34962},{"buffer":0,"byteOffset":461040,"byteLength":11664,"target":34963},{"buffer":0,"byteOffset":472704,"byteLength":7152,"target":34962},{"buffer":0,"byteOffset":479856,"byteLength":7152,"target":34962},{"buffer":0,"byteOffset":487008,"byteLength":4768,"target":34962},{"buffer":0,"byteOffset":491776,"byteLength":11664,"target":34963},{"buffer":0,"byteOffset":503440,"byteLength":7152,"target":34962},{"buffer":0,"byteOffset":510592,"byteLength":7152,"target":34962},{"buffer":0,"byteOffset":517744,"byteLength":4768,"target":34962}],"scene":0,"scenes":[{"nodes":[0,1,2,3,4,5,6,7,8,9,10,11,12,13,14,15,16],"name":"PulpitCutMachine"}],"extensionsUsed":["KHR_texture_transform"],"buffers":[{"byteLength":522512,"uri":"PulpitCutMachine.bin"}]}