{"asset":{"version":"2.0","generator":"VECTARY"},"nodes":[{"translation":[0.015,-1.4210854715202004e-17,0.07],"scale":[0.0005,0.0006521701323470588,0.001642857142857143],"rotation":[-0.7071067811865475,0,0,0.7071067811865476],"name":"Box 2","mesh":0},{"translation":[0.015,1.4210854715202004e-17,-0.07],"scale":[0.0005,0.0006521701323470588,0.001642857142857143],"rotation":[-0.7071067811865475,0,0,0.7071067811865476],"name":"Box 1","mesh":1},{"translation":[0,0.2,4.263256414560601e-17],"scale":[0.001923076923076923,0.0004545454545454546,0.03333333333333335],"rotation":[-0.5,0.4999999999999999,0.5,0.5000000000000001],"name":"Box","mesh":2}],"materials":[{"pbrMetallicRoughness":{"baseColorFactor":[0.8670237934377415,0.8670237934377415,0.8670237934377415,1],"metallicFactor":0,"roughnessFactor":0.2},"name":"Morning Shine 1","emissiveFactor":[0,0,0],"extensions":{},"alphaMode":"OPAQUE","doubleSided":false},{"pbrMetallicRoughness":{"baseColorFactor":[0.8670237934377415,0.8670237934377415,0.8670237934377415,1],"metallicFactor":0,"roughnessFactor":0.2},"name":"Morning Shine","emissiveFactor":[0,0,0],"extensions":{},"alphaMode":"OPAQUE","doubleSided":false},{"pbrMetallicRoughness":{"baseColorFactor":[0.8670237934377415,0.8670237934377415,0.8670237934377415,1],"metallicFactor":0,"roughnessFactor":0.2},"name":"Perfect Tint","emissiveFactor":[0,0,0],"extensions":{},"alphaMode":"OPAQUE","doubleSided":false}],"meshes":[{"primitives":[{"mode":4,"attributes":{"POSITION":1,"NORMAL":2,"TEXCOORD_0":3},"material":0,"indices":0}]},{"primitives":[{"mode":4,"attributes":{"POSITION":5,"NORMAL":6,"TEXCOORD_0":7},"material":1,"indices":4}]},{"primitives":[{"mode":4,"attributes":{"POSITION":9,"NORMAL":10,"TEXCOORD_0":11},"material":2,"indices":8}]}],"accessors":[{"bufferView":0,"byteOffset":0,"componentType":5125,"count":2916,"type":"SCALAR"},{"bufferView":1,"byteOffset":0,"componentType":5126,"count":596,"max":[10,23,140],"min":[-10,-23,0],"type":"VEC3"},{"bufferView":2,"byteOffset":0,"componentType":5126,"count":596,"type":"VEC3"},{"bufferView":3,"byteOffset":0,"componentType":5126,"count":596,"type":"VEC2"},{"bufferView":4,"byteOffset":0,"componentType":5125,"count":2916,"type":"SCALAR"},{"bufferView":5,"byteOffset":0,"componentType":5126,"count":596,"max":[10,23,140],"min":[-10,-23,0],"type":"VEC3"},{"bufferView":6,"byteOffset":0,"componentType":5126,"count":596,"type":"VEC3"},{"bufferView":7,"byteOffset":0,"componentType":5126,"count":596,"type":"VEC2"},{"bufferView":8,"byteOffset":0,"componentType":5125,"count":2700,"type":"SCALAR"},{"bufferView":9,"byteOffset":0,"componentType":5126,"count":556,"max":[104,22,3],"min":[-104,-22,0],"type":"VEC3"},{"bufferView":10,"byteOffset":0,"componentType":5126,"count":556,"type":"VEC3"},{"bufferView":11,"byteOffset":0,"componentType":5126,"count":556,"type":"VEC2"}],"bufferViews":[{"buffer":0,"byteOffset":0,"byteLength":11664,"target":34963},{"buffer":0,"byteOffset":11664,"byteLength":7152,"target":34962},{"buffer":0,"byteOffset":18816,"byteLength":7152,"target":34962},{"buffer":0,"byteOffset":25968,"byteLength":4768,"target":34962},{"buffer":0,"byteOffset":30736,"byteLength":11664,"target":34963},{"buffer":0,"byteOffset":42400,"byteLength":7152,"target":34962},{"buffer":0,"byteOffset":49552,"byteLength":7152,"target":34962},{"buffer":0,"byteOffset":56704,"byteLength":4768,"target":34962},{"buffer":0,"byteOffset":61472,"byteLength":10800,"target":34963},{"buffer":0,"byteOffset":72272,"byteLength":6672,"target":34962},{"buffer":0,"byteOffset":78944,"byteLength":6672,"target":34962},{"buffer":0,"byteOffset":85616,"byteLength":4448,"target":34962}],"scene":0,"scenes":[{"nodes":[0,1,2],"name":"Preheater"}],"extensionsUsed":["KHR_texture_transform"],"buffers":[{"byteLength":90064,"uri":"Preheater.bin"}]}